<?xml version="1.0" standalone="no"?>
<!DOCTYPE svg PUBLIC "-//W3C//DTD SVG 20010904//EN"
 "http://www.w3.org/TR/2001/REC-SVG-20010904/DTD/svg10.dtd">
<svg version="1.0" xmlns="http://www.w3.org/2000/svg"
 width="1024.000000pt" height="1024.000000pt" viewBox="0 0 1024.000000 1024.000000"
 preserveAspectRatio="xMidYMid meet">

<g transform="translate(0.000000,1024.000000) scale(0.100000,-0.100000)"
fill="#000000" stroke="none">
<path d="M0 5120 l0 -5120 5120 0 5120 0 0 5120 0 5120 -5120 0 -5120 0 0
-5120z m6671 3008 c41 -12 112 -66 130 -99 5 -11 -10 0 -34 24 -57 57 -126 81
-211 75 -93 -8 -145 -40 -201 -126 -36 -55 -47 -174 -21 -236 9 -21 16 -46 15
-55 0 -9 -9 7 -19 34 -27 74 -26 177 4 240 26 57 99 127 148 142 45 15 143 15
189 1z m-4 -164 c15 -11 29 -27 31 -35 3 -8 -9 -1 -25 14 -53 49 -134 49 -180
-1 -21 -22 -24 -23 -14 -5 6 12 21 29 34 38 30 22 118 15 154 -11z m173 -28
c0 -26 -6 -18 -14 19 -5 22 -4 26 4 15 5 -8 10 -24 10 -34z m-341 -127 c23
-28 37 -34 82 -40 l54 -6 -49 -2 c-44 -1 -52 3 -87 38 -33 33 -39 45 -37 77
l1 39 4 -36 c2 -20 16 -51 32 -70z m211 34 c0 -5 -10 -19 -21 -33 l-20 -25 16
33 c15 30 25 41 25 25z m120 -46 c0 -7 -7 -22 -15 -33 -13 -17 -13 -16 -3 14
13 34 18 40 18 19z m-40 -81 c0 -2 -8 -10 -17 -17 -16 -13 -17 -12 -4 4 13 16
21 21 21 13z m-75 -61 c-52 -33 -97 -45 -165 -45 -31 0 -62 -6 -70 -12 -12
-11 -12 -10 -2 3 9 12 34 18 90 21 60 3 88 10 123 30 57 33 77 35 24 3z m-365
11 c0 -2 -53 -53 -117 -112 -210 -192 -490 -470 -509 -505 -16 -29 -20 -65
-24 -234 l-6 -200 -2 185 c-1 109 3 201 9 225 9 33 46 75 202 230 153 152 432
412 445 415 1 0 2 -2 2 -4z m117 -108 c-3 -8 -6 -5 -6 6 -1 11 2 17 5 13 3 -3
4 -12 1 -19z m-7 -41 c0 -1 -44 -45 -97 -97 -54 -52 -94 -90 -90 -85 9 12 181
185 185 185 1 0 2 -1 2 -3z m-2402 -193 c93 -31 157 -73 253 -165 70 -67 362
-376 448 -475 48 -54 -123 119 -277 281 -116 121 -172 164 -172 130 0 -8 8
-19 18 -25 16 -10 15 -10 -3 -8 -11 2 -20 -2 -20 -9 0 -22 -13 -24 -20 -3 l-7
21 -19 -22 c-11 -13 -17 -29 -15 -36 7 -18 -17 -11 -26 7 -4 10 -7 4 -7 -14
-1 -29 -2 -29 -17 -10 -15 18 -15 18 -10 0 5 -15 4 -17 -8 -7 -12 10 -16 8
-21 -8 -6 -21 -35 -30 -35 -10 0 5 5 7 10 4 6 -3 10 -2 10 3 0 15 -26 22 -38
10 -8 -8 -14 -5 -20 12 -9 23 -9 23 -14 2 -4 -13 0 -26 10 -34 12 -10 14 -10
8 -1 -5 9 -2 11 9 6 10 -3 13 -8 6 -12 -6 -4 45 -66 117 -142 205 -218 252
-268 289 -312 47 -54 -46 40 -280 285 -198 207 -252 248 -325 248 -86 0 -170
-52 -203 -124 -17 -37 -19 -75 -21 -396 l-3 -355 -2 315 c-2 176 -7 318 -13
324 -5 5 -7 1 -3 -12 4 -17 -1 -24 -21 -32 -15 -5 -29 -16 -32 -25 -3 -8 -10
-12 -15 -9 -5 3 -6 -3 -2 -12 4 -12 3 -15 -5 -10 -7 4 -12 2 -12 -5 0 -8 -4
-8 -13 -1 -8 7 -24 8 -42 3 -28 -7 -29 -8 -10 -20 14 -9 15 -11 3 -7 -11 3
-19 -2 -24 -16 -4 -15 -8 -17 -14 -8 -4 7 -13 9 -19 6 -6 -4 -11 -1 -11 7 0
11 -7 13 -22 9 -19 -5 -20 -6 -4 -12 16 -5 16 -7 2 -19 -14 -12 -16 -11 -17 5
-1 11 -2 26 -3 34 -2 8 -4 42 -7 75 -2 33 -6 -167 -9 -445 l-5 -505 -3 546
c-2 531 -1 549 19 615 26 84 94 189 159 246 156 136 325 174 508 112z m2202 2
c0 -2 -70 -73 -156 -157 -86 -85 -169 -172 -185 -193 -16 -21 -29 -33 -29 -26
0 10 357 380 367 380 2 0 3 -2 3 -4z m-1980 -285 c0 -5 -7 -12 -16 -15 -14 -5
-15 -4 -4 9 14 17 20 19 20 6z m1607 -193 c-2 -18 -4 -6 -4 27 0 33 2 48 4 33
2 -15 2 -42 0 -60z m-2229 -134 c-3 -14 -6 -14 -27 3 -17 14 -21 22 -13 27 7
4 12 1 12 -8 0 -9 5 -16 11 -16 6 0 9 6 6 14 -3 8 -3 17 1 21 8 8 15 -18 10
-41z m1213 -151 c13 -16 12 -17 -3 -4 -10 7 -18 15 -18 17 0 8 8 3 21 -13z
m826 -15 c-3 -8 -6 -5 -6 6 -1 11 2 17 5 13 3 -3 4 -12 1 -19z m-756 -55 c13
-16 12 -17 -3 -4 -10 7 -18 15 -18 17 0 8 8 3 21 -13z"/>
<path d="M4286 7156 c3 -8 13 -17 22 -21 13 -5 13 -2 -3 15 -21 24 -26 25 -19
6z"/>
<path d="M3868 7053 c6 -2 18 -2 25 0 6 3 1 5 -13 5 -14 0 -19 -2 -12 -5z"/>
<path d="M3465 6670 c3 -5 8 -10 11 -10 2 0 4 5 4 10 0 6 -5 10 -11 10 -5 0
-7 -4 -4 -10z"/>
</g>
</svg>
